# xmcd
#
# Track frame offsets:
#	150
#	16768
#	26640
#	41204
#	59064
#	72125
#	84788
#	98221
#	111085
#	124579
#	136968
#	150387
#	163630
#	176518
#	189509
#	203658
#	218770
#	236056
#	251517
#	263468
#
# Disc length: 3676 seconds
#
# Revision: 1
# Processed by: cddbd v1.5.2PL0 Copyright (c) Steve Scherf et al.
# Submitted via: audiograbber 1.83.01
#
DISCID=060e5a14
DTITLE=Frank Sinatra - The very best of Frank Sinatra 40 Greates Hits CD 1
DYEAR=1900
DGENRE=
TTITLE0=I've Got You Under My Skin
TTITLE1=Chicago
TTITLE2=The Lady Is a Tramp
TTITLE3=Night and Day
TTITLE4=You Make Me Feel So Young
TTITLE5=Oh! Look at Me Now
TTITLE6=In the Wee Small Hours of the Morning
TTITLE7=All the Way
TTITLE8=Learnin' the Blues
TTITLE9=Not as a Stranger
TTITLE10=From Here to Eternity
TTITLE11=(Love Is) The Tender Trap
TTITLE12=Young at Heart
TTITLE13=I Get a Kick Out of You
TTITLE14=You're Sensational
TTITLE15=I Won't Dance
TTITLE16=From This Moment On
TTITLE17=Laura
TTITLE18=Love Is Here to Stay
TTITLE19=How About You?
EXTD=
EXTT0=
EXTT1=
EXTT2=
EXTT3=
EXTT4=
EXTT5=
EXTT6=
EXTT7=
EXTT8=
EXTT9=
EXTT10=
EXTT11=
EXTT12=
EXTT13=
EXTT14=
EXTT15=
EXTT16=
EXTT17=
EXTT18=
EXTT19=
PLAYORDER=
